<?xml version="1.0" standalone="no"?>
<!DOCTYPE svg PUBLIC "-//W3C//DTD SVG 20010904//EN"
 "http://www.w3.org/TR/2001/REC-SVG-20010904/DTD/svg10.dtd">
<svg version="1.0" xmlns="http://www.w3.org/2000/svg"
 width="3122.000000pt" height="2241.000000pt" viewBox="0 0 3122.000000 2241.000000"
 preserveAspectRatio="xMidYMid meet">

<g transform="translate(0.000000,2241.000000) scale(0.100000,-0.100000)"
fill="#000000" stroke="none">
<path d="M12655 22398 c-160 -31 -209 -43 -290 -71 -161 -54 -263 -114 -358
-211 -176 -178 -212 -429 -96 -672 61 -130 172 -217 346 -274 127 -41 559 -89
613 -67 69 27 95 42 163 90 22 15 48 27 58 27 10 0 21 5 24 10 3 6 21 10 39
10 18 0 41 7 52 15 10 8 31 15 47 15 15 0 27 5 27 10 0 6 8 10 19 10 10 0 24
7 31 15 7 8 16 15 21 15 5 0 42 24 82 54 40 29 81 55 92 57 90 18 -110 124
-305 163 -92 18 -339 46 -407 46 -62 0 -203 25 -261 47 -116 43 -123 164 -13
212 99 42 189 50 269 25 46 -15 112 -65 112 -84 0 -5 6 -15 14 -23 13 -12 24
-12 78 -1 35 7 110 20 168 29 102 15 141 22 283 46 73 12 87 25 70 62 -113
253 -275 388 -527 439 -71 14 -290 18 -351 6z"/>
<path d="M18765 22184 c-102 -23 -137 -36 -231 -81 -241 -115 -428 -350 -518
-652 -9 -29 -16 -57 -16 -62 0 -5 20 -9 44 -9 26 0 51 -6 60 -15 8 -9 33 -15
59 -15 27 0 49 -6 57 -15 7 -9 29 -15 54 -15 23 0 47 -5 54 -12 7 -7 29 -11
50 -9 25 1 43 -3 51 -13 8 -9 27 -16 44 -16 16 0 35 -6 41 -14 6 -8 36 -16 69
-18 48 -4 57 -2 57 12 0 22 51 163 78 216 25 50 84 128 120 160 15 13 51 35
80 50 47 23 62 26 140 22 75 -3 97 -8 155 -37 119 -59 177 -148 182 -278 1
-39 5 -76 9 -81 3 -6 30 -15 58 -22 84 -18 350 -80 460 -107 37 -9 71 -14 75
-10 12 12 7 259 -6 317 -80 350 -303 558 -726 679 -149 42 -377 54 -500 25z"/>
<path d="M9755 21630 c-16 -4 -64 -15 -105 -25 -196 -44 -455 -189 -573 -319
-39 -43 -117 -143 -117 -150 0 -4 -11 -23 -23 -44 -32 -50 -83 -184 -99 -257
-16 -78 -17 -323 0 -400 42 -196 136 -407 254 -569 7 -11 74 6 121 30 16 8 37
14 48 14 10 0 19 5 19 10 0 6 8 10 19 10 10 0 24 7 31 15 7 8 20 15 29 15 9 0
25 7 35 15 11 8 30 15 42 15 12 0 27 7 35 16 7 9 21 13 35 10 13 -4 27 0 34 9
7 8 27 15 45 15 18 0 38 7 45 15 7 8 24 15 37 15 14 0 35 8 48 19 l24 18 -31
29 c-98 93 -189 272 -233 461 -13 51 -16 99 -13 170 4 85 9 107 37 165 47 99
127 159 249 188 175 41 355 -79 463 -310 46 -97 59 -133 84 -237 26 -108 31
-190 14 -262 -11 -50 -6 -60 21 -43 11 7 33 12 49 12 16 0 34 7 41 15 7 8 27
15 45 15 18 0 38 7 45 15 7 8 23 15 36 15 12 0 26 5 29 10 3 6 23 10 45 10 24
0 40 5 44 15 3 9 18 15 35 15 16 0 42 7 57 15 20 11 52 15 99 13 39 -1 76 1
83 6 16 10 15 145 -3 266 -17 116 -25 146 -80 300 -56 155 -200 351 -334 454
-78 60 -198 127 -264 148 -129 40 -186 48 -327 47 -80 0 -158 -4 -175 -9z"/>
<path d="M15477 21524 c-3 -3 -6 -116 -7 -250 l-1 -244 138 -1 c76 0 149 -2
163 -3 14 -2 117 -5 230 -7 l205 -4 7 240 c4 132 4 243 0 247 -16 16 -720 37
-735 22z m48 -54 c3 -5 13 -10 22 -10 24 0 148 -129 130 -135 -8 -4 -33 14
-63 44 -27 28 -56 51 -64 51 -14 0 -60 41 -60 54 0 10 28 7 35 -4z m235 -180
c30 -31 38 -50 20 -50 -13 0 -70 57 -70 70 0 18 20 10 50 -20z"/>
<path d="M13604 21335 c-4 -9 -19 -15 -39 -15 -18 0 -38 -7 -45 -15 -7 -8 -21
-15 -30 -15 -10 0 -20 -6 -22 -12 -3 -7 -18 -11 -35 -10 -17 1 -36 -4 -43 -13
-7 -8 -21 -15 -32 -15 -10 0 -21 -7 -24 -15 -4 -9 -19 -15 -39 -15 -18 0 -38
-6 -45 -14 -6 -8 -18 -12 -26 -9 -7 3 -17 -2 -20 -11 -4 -10 -18 -16 -39 -16
-18 0 -38 -7 -45 -15 -7 -8 -21 -15 -30 -15 -10 0 -20 -5 -22 -12 -3 -7 -20
-13 -39 -13 -45 0 -48 -33 -4 -49 77 -28 111 -77 99 -141 -19 -101 -251 -184
-394 -141 -73 22 -124 57 -151 106 -24 43 -36 49 -45 25 -4 -9 -19 -15 -39
-15 -18 0 -38 -7 -45 -15 -7 -8 -19 -15 -28 -15 -8 0 -25 -11 -38 -25 -13 -14
-32 -25 -42 -25 -11 0 -22 -7 -26 -15 -3 -8 -11 -12 -19 -9 -8 3 -20 -2 -27
-11 -7 -8 -21 -15 -32 -15 -10 0 -21 -7 -24 -15 -4 -8 -17 -15 -30 -15 -13 0
-24 -4 -24 -10 0 -5 -8 -10 -19 -10 -10 0 -24 -7 -31 -15 -7 -8 -21 -15 -32
-15 -10 0 -21 -7 -24 -15 -4 -8 -15 -15 -25 -15 -28 0 -24 -10 29 -75 165
-206 461 -311 775 -276 422 48 739 219 850 461 43 93 51 134 51 260 0 129 -12
192 -54 278 -24 50 -64 69 -76 37z"/>
<path d="M17981 21256 c-32 -38 -22 -336 15 -461 36 -120 105 -248 180 -337
142 -170 348 -282 649 -355 111 -27 355 -24 465 6 263 70 450 230 576 491 33
69 34 80 5 80 -10 0 -24 7 -32 16 -8 9 -21 13 -35 10 -13 -4 -29 0 -38 9 -8 8
-21 15 -28 15 -8 0 -23 7 -34 15 -10 8 -31 15 -45 15 -14 0 -39 4 -55 9 -16 5
-65 17 -109 26 -44 9 -100 23 -124 31 -67 21 -75 18 -95 -28 -41 -95 -123
-176 -205 -205 -103 -36 -273 3 -362 84 -101 92 -138 243 -103 421 l7 32 -46
0 c-27 0 -49 6 -57 15 -7 9 -29 15 -55 15 -26 0 -47 6 -56 16 -8 9 -21 13 -35
10 -13 -4 -29 0 -38 9 -8 9 -33 15 -59 15 -31 0 -47 5 -51 15 -4 11 -21 15
-64 15 -41 0 -64 5 -72 15 -16 19 -84 20 -99 1z"/>
<path d="M21745 21253 c-77 -10 -206 -50 -279 -86 -208 -101 -369 -273 -482
-512 -42 -91 -80 -191 -95 -254 -9 -40 4 -73 26 -65 8 4 18 -1 21 -10 4 -9 18
-16 33 -16 15 0 36 -7 47 -15 10 -8 27 -15 36 -15 9 0 18 -5 20 -10 2 -6 14
-12 28 -15 14 -3 26 -9 28 -15 2 -5 12 -10 22 -10 9 0 23 -7 30 -15 7 -8 21
-15 30 -15 10 0 20 -5 22 -10 2 -6 14 -12 28 -15 14 -3 26 -9 28 -15 2 -5 12
-10 22 -10 9 0 23 -7 30 -15 7 -8 20 -15 30 -15 10 0 23 -6 29 -14 7 -8 21
-12 32 -9 11 3 28 -2 39 -12 11 -10 20 -16 21 -14 0 2 2 24 5 48 5 48 59 220
75 236 5 5 9 15 9 23 0 26 111 185 168 240 61 60 154 109 225 118 135 19 318
-96 364 -230 24 -67 23 -235 -1 -326 -24 -92 -114 -273 -173 -352 -52 -67 -55
-78 -21 -78 10 0 21 -7 24 -15 4 -8 15 -15 26 -15 10 0 29 -11 42 -25 13 -14
30 -25 38 -25 9 0 21 -7 28 -15 7 -8 20 -15 30 -15 10 0 23 -7 30 -15 7 -8 16
-13 20 -10 5 3 15 -2 23 -10 9 -8 22 -15 30 -15 8 0 20 -7 27 -15 7 -8 20 -15
30 -15 10 0 23 -7 30 -15 7 -8 16 -12 21 -10 4 3 20 -8 35 -25 15 -16 34 -30
42 -30 9 0 24 -7 33 -16 17 -15 21 -15 42 -1 46 30 164 227 214 357 138 359
100 711 -105 986 -141 189 -341 319 -632 412 -100 32 -315 50 -425 35z"/>
<path d="M7025 20365 c-316 -52 -690 -311 -829 -575 -54 -104 -69 -171 -65
-302 4 -113 4 -113 56 -218 80 -165 193 -266 343 -305 82 -22 119 -19 146 10
13 14 30 25 39 25 9 0 27 13 41 30 14 16 31 27 37 24 7 -2 26 9 42 26 16 16
35 30 43 30 8 0 25 11 38 25 13 14 32 25 42 25 11 0 22 7 26 15 3 8 14 15 24
15 11 0 25 7 32 15 7 8 18 15 25 15 7 0 24 11 39 25 15 14 35 25 45 25 11 0
21 7 25 15 3 8 11 12 19 10 7 -3 26 8 42 25 16 16 34 30 40 30 11 0 59 20 97
41 10 5 27 9 38 9 11 0 23 7 26 15 4 8 16 15 29 15 13 0 25 7 29 15 3 8 11 12
19 9 8 -3 20 2 27 11 7 8 21 15 32 15 10 0 21 7 24 15 4 8 16 15 29 15 13 0
25 7 29 15 3 8 11 12 19 9 8 -3 20 2 27 11 7 8 25 15 40 15 15 0 33 7 40 15 7
8 20 15 30 15 10 0 23 6 30 14 6 8 18 12 26 9 7 -3 17 2 20 11 3 9 17 16 30
16 32 0 30 16 -4 34 -39 20 -171 46 -234 46 -89 0 -267 -34 -423 -80 -16 -5
-52 -16 -80 -24 -27 -8 -75 -22 -105 -31 -209 -62 -297 -60 -344 7 -40 56 -2
128 101 194 69 44 126 64 186 64 51 0 78 -10 114 -43 14 -12 28 -17 40 -13 42
16 505 300 510 313 11 27 -119 142 -217 194 -68 35 -107 48 -195 64 -94 17
-132 17 -240 0z"/>
<path d="M10844 20265 c-10 -8 -35 -15 -55 -15 -20 0 -50 -7 -65 -15 -16 -8
-48 -15 -71 -15 -23 0 -45 -4 -48 -10 -3 -5 -30 -10 -58 -10 -30 0 -60 -7 -71
-15 -11 -8 -37 -15 -57 -15 -21 0 -41 -4 -44 -10 -3 -5 -19 -10 -34 -10 -15 0
-36 -7 -47 -15 -10 -8 -29 -15 -41 -15 -12 0 -34 -6 -50 -14 -108 -55 -236
-96 -301 -96 -16 0 -35 -7 -42 -15 -7 -8 -16 -13 -20 -10 -4 2 -16 -2 -26 -10
-10 -8 -31 -15 -45 -15 -15 0 -32 -7 -39 -15 -7 -8 -23 -15 -37 -15 -13 0 -34
-7 -47 -15 -13 -9 -40 -15 -60 -13 -20 1 -41 -3 -48 -10 -7 -7 -35 -12 -63
-12 -27 -1 -61 -7 -75 -15 -14 -8 -45 -14 -70 -15 -26 0 -51 -5 -57 -11 -7 -7
-36 -13 -65 -15 -36 -1 -54 -7 -56 -17 -3 -16 107 -114 188 -165 76 -49 204
-100 296 -117 42 -8 126 -15 187 -15 437 0 851 237 1032 589 27 54 65 163 59
173 -8 13 -48 9 -70 -7z"/>
<path d="M20860 20110 c0 -148 16 -234 63 -345 64 -150 187 -301 331 -404 71
-50 105 -70 183 -109 10 -5 29 -15 42 -22 44 -23 155 -60 246 -83 118 -29 363
-31 465 -4 133 36 231 82 329 156 41 31 82 62 91 69 22 16 15 52 -10 52 -10 0
-23 7 -30 15 -7 8 -20 15 -30 15 -10 0 -23 7 -30 15 -7 8 -21 15 -31 15 -11 0
-19 5 -19 10 0 6 -8 10 -19 10 -10 0 -24 7 -31 15 -7 8 -20 15 -30 15 -10 0
-23 6 -29 14 -7 8 -27 22 -46 31 -19 9 -35 20 -35 25 0 6 -11 10 -24 10 -13 0
-26 7 -30 15 -3 8 -14 15 -24 15 -11 0 -25 6 -32 14 -6 8 -18 12 -26 9 -7 -3
-17 2 -20 11 -3 9 -17 16 -29 16 -13 0 -26 4 -29 8 -3 5 -33 -5 -67 -21 -82
-41 -155 -46 -248 -18 -125 38 -231 150 -246 260 -5 37 -13 53 -35 70 -16 11
-36 21 -43 21 -8 0 -20 7 -27 15 -7 8 -19 15 -27 15 -8 0 -21 7 -29 15 -9 9
-25 13 -38 9 -14 -3 -27 1 -35 10 -8 9 -22 16 -33 16 -10 0 -21 7 -24 15 -4 8
-16 15 -29 15 -13 0 -25 7 -29 15 -3 8 -11 12 -19 9 -8 -3 -20 2 -27 11 -7 8
-21 15 -32 15 -10 0 -21 7 -24 15 -4 8 -16 15 -29 15 -13 0 -26 7 -29 16 -3 9
-12 14 -20 11 -7 -3 -26 1 -41 9 -15 8 -36 14 -46 14 -18 0 -19 -9 -19 -140z"/>
<path d="M24372 19948 c-21 -29 -57 -80 -80 -113 -23 -33 -64 -91 -91 -130
-47 -66 -87 -122 -179 -255 -101 -145 -309 -441 -344 -488 -34 -46 -38 -55
-26 -70 21 -27 52 -51 66 -52 7 0 23 -11 36 -25 13 -14 30 -25 37 -25 8 0 26
-11 41 -25 15 -14 34 -25 43 -25 9 0 18 -7 21 -15 4 -8 15 -15 25 -15 10 0 37
-18 59 -40 22 -22 47 -40 55 -40 8 0 31 -16 51 -36 26 -27 33 -39 25 -47 -9
-9 -19 -3 -39 21 -15 17 -35 32 -44 32 -9 0 -20 5 -23 10 -3 6 -14 10 -24 10
-10 0 -28 14 -41 30 -13 17 -31 30 -40 30 -9 0 -27 11 -40 25 -13 14 -31 25
-41 25 -9 0 -22 7 -29 15 -7 8 -19 15 -27 15 -8 0 -24 11 -37 25 -13 14 -30
25 -38 25 -9 0 -21 7 -28 15 -7 8 -25 15 -40 15 -23 0 -36 -13 -86 -85 -33
-47 -105 -150 -161 -230 -57 -79 -103 -148 -103 -154 0 -5 35 -34 78 -64 306
-213 390 -272 411 -288 36 -29 53 -23 86 29 16 26 70 104 120 174 210 295 212
298 185 298 -5 0 -10 7 -10 15 0 18 12 19 28 3 8 -8 15 -8 26 1 18 15 12 19
158 -86 151 -108 208 -178 208 -256 -1 -46 -38 -131 -97 -218 -78 -116 -158
-250 -172 -289 -10 -30 -9 -36 6 -48 10 -7 70 -50 133 -94 63 -45 168 -119
232 -164 159 -112 158 -112 180 -85 16 21 16 24 2 47 -15 23 -15 27 13 82 17
32 61 101 98 152 119 164 157 240 123 240 -7 0 -44 30 -83 68 -38 37 -76 67
-82 67 -22 0 -115 97 -104 108 7 7 23 -3 50 -31 22 -23 47 -42 56 -42 8 0 32
-18 54 -40 21 -22 45 -40 52 -40 7 0 30 -16 50 -36 21 -20 41 -34 47 -30 16
10 35 122 30 183 -4 56 -30 122 -80 201 -11 18 -18 35 -15 38 3 3 22 1 44 -5
82 -23 204 -6 293 40 98 51 211 183 270 314 65 144 61 250 -13 399 -34 68 -60
101 -161 202 -67 67 -148 141 -181 165 -114 83 -285 204 -520 369 -353 248
-357 250 -366 250 -5 0 -26 -24 -47 -52z m430 -787 c202 -142 227 -167 259
-254 16 -47 2 -112 -38 -164 -35 -45 -71 -63 -132 -63 -64 0 -114 22 -236 105
-55 38 -119 82 -142 97 -24 16 -43 37 -43 46 0 9 15 36 33 59 17 23 65 89 106
147 41 58 76 106 77 106 2 0 54 -36 116 -79z m-72 -1026 c0 -8 -7 -15 -15 -15
-8 0 -15 7 -15 15 0 8 7 15 15 15 8 0 15 -7 15 -15z"/>
<path d="M8026 19545 c-11 -8 -32 -15 -47 -15 -15 0 -40 -7 -55 -15 -16 -8
-39 -15 -51 -15 -12 0 -25 -4 -28 -10 -3 -5 -17 -10 -30 -10 -13 0 -36 -6 -52
-14 -15 -8 -57 -29 -93 -46 -36 -17 -72 -35 -80 -40 -8 -5 -22 -11 -30 -14 -8
-4 -37 -20 -65 -36 -27 -17 -68 -39 -90 -49 -22 -11 -51 -31 -64 -45 -14 -14
-29 -26 -35 -26 -6 0 -30 -18 -54 -40 -29 -27 -52 -40 -71 -40 -16 0 -34 -7
-41 -15 -7 -8 -21 -15 -31 -15 -11 0 -19 -4 -19 -10 0 -5 -8 -10 -19 -10 -10
0 -24 -7 -31 -15 -7 -8 -27 -15 -45 -15 -20 0 -35 -6 -39 -15 -3 -8 -14 -15
-25 -15 -11 0 -23 -4 -26 -10 -3 -5 -15 -10 -26 -10 -11 0 -22 -7 -25 -15 -4
-8 -17 -15 -30 -15 -13 0 -24 -4 -24 -10 0 -5 8 -10 18 -10 27 0 208 46 339
85 216 66 283 83 347 85 68 3 74 1 111 -31 30 -27 35 -37 35 -75 0 -58 -34
-111 -102 -163 -146 -109 -279 -127 -384 -51 l-44 31 -265 -158 c-146 -87
-265 -164 -265 -172 0 -7 33 -46 73 -86 124 -124 280 -185 477 -185 218 0 418
66 630 207 357 239 520 538 451 825 -22 93 -73 202 -123 262 -32 39 -43 43
-72 21z"/>
<path d="M4805 18709 c-67 -9 -181 -50 -237 -86 -21 -13 -40 -23 -43 -23 -3 0
-42 -26 -88 -57 -81 -56 -243 -191 -472 -393 -65 -58 -155 -137 -199 -176
-209 -183 -260 -230 -263 -240 -2 -7 16 -34 40 -60 25 -27 69 -77 98 -112 218
-253 536 -611 544 -611 6 -1 119 107 250 239 132 132 253 246 270 254 16 8 70
56 120 105 49 50 96 91 104 91 7 0 55 43 107 95 51 52 99 95 106 95 8 0 42 29
78 65 35 35 72 65 83 67 11 2 34 20 51 41 31 38 31 40 31 155 0 92 -4 128 -19
167 -45 114 -160 253 -266 320 -90 57 -190 78 -295 64z m18 -643 c87 -66 102
-157 43 -250 -33 -51 -283 -286 -304 -286 -6 0 -26 17 -45 38 -156 172 -207
232 -207 244 0 23 252 238 310 265 45 21 54 23 111 20 42 -2 64 -9 92 -31z"/>
<path d="M26697 17943 c-98 -98 -176 -183 -175 -190 2 -7 90 -100 196 -206
105 -107 192 -201 192 -208 0 -8 -131 -143 -292 -301 l-293 -286 68 -69 c37
-38 67 -75 67 -82 0 -8 32 -45 71 -84 39 -38 77 -81 84 -94 18 -34 134 -153
150 -153 7 0 15 6 18 13 2 7 138 143 302 302 l298 290 203 -209 204 -209 185
178 c102 97 185 180 185 183 0 4 -85 92 -188 197 -103 104 -389 396 -636 648
-246 251 -451 457 -455 457 -3 0 -86 -80 -184 -177z"/>
<path d="M5426 17966 c-22 -7 -42 -18 -44 -24 -2 -7 -12 -12 -21 -12 -10 0
-71 -53 -135 -119 -65 -65 -129 -124 -144 -132 -28 -13 -822 -798 -822 -812 0
-9 70 -91 310 -362 96 -109 191 -216 210 -237 l35 -40 91 78 c238 206 394 347
394 358 0 6 -30 45 -66 86 -37 41 -94 107 -127 145 -33 39 -78 90 -101 115
-74 80 -146 166 -146 174 0 20 207 193 281 235 126 70 200 35 398 -187 64 -72
190 -182 207 -182 5 1 23 13 40 28 291 254 357 313 402 356 28 28 52 54 52 57
0 19 -34 40 -57 35 -39 -11 -75 18 -197 156 -130 147 -226 234 -296 270 -36
18 -63 23 -135 25 -51 1 -107 -4 -129 -11z"/>
<path d="M2446 16648 c-51 -68 -208 -272 -294 -381 -20 -26 -38 -51 -40 -56
-3 -9 55 -56 413 -331 89 -69 210 -162 268 -207 59 -46 111 -83 116 -83 13 0
121 113 121 127 0 7 50 62 110 122 61 60 110 115 110 122 0 7 24 38 53 67 28
30 47 56 42 58 -10 4 -113 82 -275 208 -123 95 -369 285 -457 354 -52 39 -98
72 -103 72 -5 0 -34 -33 -64 -72z"/>
<path d="M26006 16436 c-66 -68 -121 -127 -123 -132 -3 -12 434 -454 450 -454
7 0 52 40 101 89 95 95 96 100 47 145 -12 11 -21 25 -21 33 0 7 -18 31 -40 53
-22 22 -40 46 -40 53 0 7 -18 31 -40 52 -22 21 -40 46 -40 55 0 9 -11 27 -25
40 -14 13 -25 31 -25 40 0 9 -13 27 -30 40 -16 13 -30 28 -30 33 0 13 -49 77
-58 76 -4 -1 -61 -56 -126 -123z"/>
<path d="M3372 15907 c-39 -40 -72 -79 -72 -88 0 -8 -29 -44 -65 -79 -36 -35
-65 -70 -65 -78 0 -7 -25 -37 -55 -67 -30 -29 -55 -60 -55 -67 0 -8 -5 -19
-12 -26 -9 -9 6 -28 60 -81 96 -95 116 -135 117 -231 0 -73 -2 -77 -46 -145
-54 -81 -87 -115 -146 -145 -93 -48 -170 -34 -299 52 l-75 50 -25 -23 c-13
-12 -24 -28 -24 -36 0 -7 -18 -30 -40 -52 -22 -21 -40 -45 -40 -53 0 -8 -11
-25 -25 -38 -14 -13 -25 -31 -25 -40 0 -9 -18 -34 -40 -55 -22 -21 -40 -45
-40 -52 0 -7 -13 -26 -30 -41 -16 -16 -30 -36 -30 -44 0 -8 -11 -25 -25 -38
-58 -54 -19 -93 190 -194 308 -150 606 -87 875 183 192 193 334 406 402 605
29 84 32 101 32 226 0 119 -3 143 -25 207 -14 39 -46 104 -70 144 -48 81 -232
279 -258 279 -9 0 -49 -33 -89 -73z"/>
<path d="M1694 15673 c-35 -42 -158 -201 -311 -401 -31 -40 -54 -74 -52 -76 2
-2 42 -32 89 -68 47 -36 150 -115 230 -177 80 -62 218 -169 307 -237 89 -69
165 -129 168 -134 11 -17 25 -11 25 10 0 12 11 31 25 44 14 13 25 30 25 38 0
7 18 32 40 53 22 21 40 46 40 55 0 9 18 34 40 55 22 21 40 45 40 52 0 7 18 30
40 52 22 22 40 46 40 53 0 8 18 32 40 53 22 21 40 46 40 55 -1 8 -31 38 -68
65 -37 28 -112 86 -168 130 -162 128 -526 409 -539 417 -8 5 -27 -9 -51 -39z"/>
<path d="M15820 15554 c-41 -13 -102 -33 -135 -44 -33 -10 -132 -44 -220 -75
-88 -31 -223 -77 -300 -102 -77 -25 -156 -51 -175 -58 -59 -23 -170 -62 -295
-105 -66 -22 -136 -47 -155 -54 -19 -8 -75 -26 -125 -42 -139 -43 -193 -60
-285 -94 -47 -17 -112 -40 -145 -51 -33 -11 -69 -24 -80 -29 -11 -4 -78 -27
-150 -49 -122 -40 -275 -93 -320 -112 -25 -10 -230 -78 -270 -89 -16 -5 -68
-22 -115 -40 -101 -37 -194 -68 -430 -144 -96 -31 -191 -63 -210 -70 -19 -8
-69 -26 -110 -41 -41 -15 -91 -33 -110 -40 -19 -7 -96 -32 -170 -55 -128 -39
-245 -79 -300 -101 -13 -6 -51 -19 -85 -30 -33 -11 -69 -24 -80 -29 -36 -15
-169 -60 -235 -79 -36 -11 -123 -40 -195 -66 -71 -26 -143 -50 -160 -55 -118
-31 -213 -86 -254 -146 -28 -40 -27 -46 16 -88 61 -59 140 -86 388 -136 80
-16 291 -61 350 -74 89 -21 344 -76 395 -86 65 -12 184 -37 265 -56 39 -9 88
-19 110 -24 22 -4 94 -20 160 -34 195 -44 294 -66 395 -86 96 -19 188 -39 400
-86 63 -15 133 -30 155 -34 97 -20 204 -41 255 -50 54 -10 113 -22 255 -54 39
-9 90 -21 115 -26 25 -5 88 -19 140 -30 52 -11 115 -25 140 -30 25 -5 77 -17
115 -25 39 -9 90 -20 115 -24 52 -10 322 -68 425 -91 79 -18 171 -38 250 -54
44 -9 125 -25 180 -36 55 -11 132 -27 170 -35 39 -9 88 -20 110 -25 22 -4 69
-15 105 -23 261 -60 243 -58 312 -37 35 10 101 32 148 50 128 48 211 76 620
210 206 67 425 141 485 162 61 22 139 50 175 63 36 13 115 39 175 59 61 19
164 54 230 77 66 23 154 52 195 65 41 13 154 50 250 82 96 33 214 72 262 86
48 15 90 32 94 37 11 18 -15 36 -69 47 -28 6 -104 26 -167 43 -63 17 -131 35
-150 39 -19 4 -134 34 -255 65 -121 31 -239 61 -263 66 -24 5 -47 11 -52 14
-5 3 -28 9 -52 14 -24 5 -115 27 -203 51 -88 23 -245 63 -350 90 -104 27 -215
55 -245 63 -182 50 -299 81 -330 87 -19 4 -96 23 -170 43 -74 19 -146 37 -160
39 -87 19 -272 72 -310 90 -24 12 -64 41 -87 65 -38 37 -43 48 -43 86 0 61 33
129 82 171 49 43 85 51 198 50 85 -2 127 -11 555 -124 66 -18 136 -36 155 -40
19 -4 89 -22 155 -40 66 -17 136 -35 155 -40 19 -4 62 -15 95 -25 33 -9 83
-23 110 -30 28 -7 77 -21 110 -30 33 -10 76 -21 95 -26 41 -9 175 -44 345 -89
66 -18 136 -36 155 -40 38 -9 227 -58 325 -86 96 -26 107 -29 375 -97 140 -36
282 -73 315 -82 33 -9 83 -23 110 -30 28 -7 75 -20 105 -29 225 -62 252 -66
317 -42 21 8 99 33 173 57 74 23 161 51 192 61 32 10 83 31 115 47 80 41 151
65 493 172 52 17 104 34 115 39 11 5 65 23 120 40 55 18 129 42 165 55 36 13
90 31 120 41 155 49 275 118 307 179 11 20 9 27 -8 50 -48 60 -172 109 -354
139 -55 10 -147 28 -205 42 -130 30 -227 52 -260 57 -35 6 -261 53 -340 71
-159 35 -363 78 -460 97 -58 11 -136 27 -175 35 -38 8 -126 26 -195 40 -69 14
-172 36 -230 49 -105 25 -276 61 -360 76 -42 7 -290 61 -370 79 -19 5 -114 24
-210 44 -96 20 -206 43 -245 51 -136 31 -151 34 -235 50 -47 8 -116 22 -155
31 -120 27 -188 41 -245 53 -30 6 -127 27 -215 47 -88 20 -194 43 -235 51 -41
7 -95 17 -120 22 -25 5 -88 18 -140 29 -52 11 -135 28 -185 37 -49 10 -132 28
-183 41 -128 33 -267 32 -372 -2z"/>
<path d="M28630 15530 c-116 -12 -226 -46 -341 -103 -167 -84 -320 -201 -422
-322 -82 -98 -82 -98 -49 -137 16 -18 38 -49 50 -68 11 -19 48 -62 81 -95 34
-33 61 -65 61 -71 0 -17 195 -214 211 -214 8 0 25 19 39 41 61 99 212 222 365
297 260 128 455 85 578 -127 30 -52 32 -63 32 -146 0 -84 -3 -95 -37 -165 -76
-154 -304 -339 -494 -400 -21 -7 -42 -15 -47 -17 -4 -2 24 -35 61 -73 37 -38
75 -81 83 -96 7 -15 68 -82 134 -149 66 -67 133 -141 148 -164 l28 -42 77 42
c328 180 534 450 587 769 33 194 2 393 -92 589 -139 292 -369 511 -638 609
-113 41 -273 57 -415 42z"/>
<path d="M27650 14693 c-6 -21 -13 -90 -16 -153 -9 -188 31 -365 119 -530 121
-228 304 -420 492 -516 144 -74 269 -104 432 -104 103 0 267 22 285 39 9 8
-581 595 -635 631 -20 14 -51 45 -68 70 -33 47 -578 600 -591 600 -4 0 -12
-17 -18 -37z"/>
<path d="M814 13802 c-252 -42 -467 -211 -640 -505 -111 -187 -154 -343 -154
-552 1 -283 88 -486 296 -685 172 -165 379 -274 629 -331 103 -24 436 -16 368
8 -7 3 -13 19 -13 38 0 18 -7 38 -15 45 -8 7 -15 27 -15 45 0 20 -6 35 -15 39
-9 3 -15 18 -15 40 0 19 -4 38 -10 41 -5 3 -10 28 -10 54 0 26 -7 56 -15 67
-10 14 -14 47 -15 120 l0 100 -97 33 c-235 80 -435 225 -512 371 -31 57 -35
73 -35 140 0 62 5 85 29 133 55 114 157 197 261 211 35 5 95 -2 175 -20 25 -6
30 2 157 258 73 144 132 271 132 280 0 13 -18 23 -67 37 -153 45 -286 55 -419
33z"/>
<path d="M1737 13523 c-4 -3 -7 -14 -7 -24 0 -9 -7 -19 -15 -23 -8 -3 -15 -14
-15 -25 0 -11 -4 -23 -10 -26 -5 -3 -10 -19 -10 -35 0 -16 -7 -35 -15 -44 -8
-8 -15 -21 -15 -29 0 -8 -7 -20 -15 -27 -8 -7 -15 -28 -15 -46 0 -19 -4 -34
-10 -34 -5 0 -10 -8 -10 -19 0 -10 -7 -24 -15 -31 -8 -7 -15 -28 -15 -47 0
-21 -6 -36 -15 -39 -9 -4 -15 -19 -15 -39 0 -18 -7 -38 -15 -45 -24 -20 -17
-49 24 -99 75 -90 100 -171 81 -262 -22 -100 -107 -223 -186 -265 l-34 -19 0
-102 c0 -62 4 -103 10 -103 6 0 10 -40 10 -100 0 -80 3 -102 15 -106 10 -4 15
-21 15 -54 0 -30 6 -52 15 -60 8 -7 15 -21 15 -31 0 -11 2 -19 4 -19 10 0 154
84 194 114 140 102 291 301 378 494 72 160 89 241 89 422 0 144 -2 161 -29
244 -49 149 -106 242 -222 362 -55 57 -139 124 -154 124 -4 0 -10 -3 -13 -7z"/>
<path d="M19195 13043 c-35 -9 -409 -133 -430 -143 -11 -5 -99 -35 -195 -66
-166 -53 -272 -89 -350 -119 -19 -7 -93 -32 -165 -55 -71 -23 -179 -59 -240
-80 -60 -21 -139 -47 -175 -59 -36 -11 -103 -34 -150 -51 -47 -17 -128 -45
-180 -61 -216 -69 -460 -149 -530 -175 -41 -15 -111 -40 -155 -56 -44 -16
-129 -44 -190 -63 -137 -42 -172 -53 -210 -70 -17 -8 -65 -25 -109 -39 -84
-28 -201 -35 -251 -16 -23 9 -170 42 -310 70 -139 27 -257 53 -305 65 -30 8
-86 21 -125 30 -38 8 -88 20 -110 25 -78 18 -181 39 -270 55 -85 16 -171 34
-260 55 -22 5 -94 21 -160 35 -66 14 -147 32 -180 40 -33 7 -96 21 -140 30
-44 9 -98 20 -120 25 -22 5 -74 16 -115 25 -41 8 -95 20 -120 25 -25 5 -94 21
-155 35 -60 15 -220 48 -355 75 -135 28 -279 58 -321 69 -42 11 -104 23 -138
27 -53 6 -62 4 -67 -11 -11 -28 15 -1380 27 -1412 17 -46 131 -152 224 -210
35 -22 146 -73 158 -73 7 0 57 -16 112 -36 55 -20 123 -42 150 -50 28 -8 64
-19 80 -24 56 -16 180 -49 263 -70 45 -11 117 -29 160 -39 83 -21 241 -52 417
-81 61 -11 151 -26 200 -35 50 -8 155 -22 235 -31 515 -56 1065 -75 1410 -49
111 8 237 15 279 15 43 0 100 6 127 14 27 8 105 19 174 26 69 6 155 18 192 26
37 7 85 14 108 14 23 0 49 4 59 9 9 5 55 14 101 20 102 12 182 28 355 71 72
17 189 45 260 62 72 17 155 41 185 54 30 12 82 30 115 39 151 43 295 91 435
146 30 11 65 23 78 26 12 3 25 9 28 14 3 5 12 9 19 9 8 0 54 19 102 41 49 23
124 58 168 79 44 21 114 54 156 73 124 59 232 157 245 224 4 23 -5 42 -53 108
-81 111 -109 167 -128 260 -17 83 -15 139 10 245 24 104 65 174 167 288 l48
54 -1 211 c-1 117 -4 246 -8 287 -6 71 -7 75 -31 77 -14 0 -34 -1 -45 -4z"/>
<path d="M30325 12830 c-79 -13 -117 -25 -197 -63 -91 -44 -168 -111 -220
-191 -32 -51 -37 -65 -32 -95 4 -20 13 -43 20 -52 8 -8 14 -19 14 -24 0 -4 11
-23 25 -41 14 -18 25 -37 25 -42 0 -5 7 -15 15 -22 8 -7 15 -21 15 -31 0 -11
5 -19 10 -19 6 0 10 -11 10 -24 0 -13 7 -26 15 -30 8 -3 15 -14 15 -24 0 -10
11 -29 25 -42 14 -13 25 -32 25 -42 0 -10 7 -21 15 -24 8 -4 15 -16 15 -29 0
-13 7 -25 15 -29 9 -3 15 -19 15 -41 0 -19 5 -35 10 -35 6 0 10 -8 10 -18 0
-10 7 -27 15 -38 8 -10 15 -31 15 -45 0 -15 7 -30 16 -33 18 -7 15 -47 -3 -54
-7 -2 -16 5 -19 15 -3 10 -10 26 -15 35 -5 10 -9 24 -9 32 0 7 -7 19 -15 26
-8 7 -15 21 -15 31 0 11 -4 19 -8 19 -9 0 -42 69 -42 87 0 6 -7 16 -15 23 -8
7 -15 19 -15 28 0 8 -11 25 -25 38 -14 13 -25 29 -25 37 0 8 -7 20 -15 27 -8
7 -15 17 -15 23 0 5 -11 25 -25 43 -14 18 -25 38 -25 44 0 6 -11 21 -25 34
-14 13 -25 29 -25 36 0 7 -11 25 -24 41 l-24 28 -7 -97 c-6 -95 5 -263 25
-372 48 -268 58 -419 30 -475 -20 -40 -80 -69 -122 -60 -45 10 -118 88 -158
170 -30 60 -35 82 -38 156 -4 97 5 123 65 190 l35 39 -20 43 c-11 23 -43 98
-72 167 -29 69 -60 143 -70 165 -10 22 -33 75 -50 118 -18 42 -36 77 -42 77
-6 0 -42 -21 -80 -47 -165 -109 -264 -307 -275 -553 -7 -140 25 -335 68 -412
5 -10 9 -22 9 -28 0 -19 82 -183 132 -263 170 -276 384 -421 623 -421 151 0
321 64 422 160 53 49 54 52 51 99 -2 33 1 49 10 53 8 2 16 -5 19 -17 9 -35 20
-24 42 47 53 164 54 329 6 622 -41 252 -47 313 -34 373 9 45 19 64 46 87 18
17 43 30 54 30 52 0 105 -51 147 -142 54 -116 52 -216 -4 -278 -19 -21 -34
-44 -34 -53 0 -15 91 -239 131 -321 10 -22 19 -43 19 -47 0 -20 85 -189 95
-189 36 0 177 131 231 215 81 128 99 199 98 390 -1 144 -3 169 -28 250 -118
392 -345 675 -604 750 -63 18 -165 25 -227 15z m-75 -1146 c0 -26 -17 -33 -26
-9 -8 20 3 48 16 40 5 -3 10 -17 10 -31z m25 -62 c0 -18 -20 -15 -23 4 -3 10
1 15 10 12 7 -3 13 -10 13 -16z m31 -73 c3 -6 2 -15 -2 -19 -12 -12 -38 5 -30
19 9 14 23 14 32 0z m24 -129 c0 -31 -16 -41 -26 -15 -8 19 2 45 16 45 5 0 10
-13 10 -30z m28 -151 c-2 -19 -7 -33 -13 -32 -12 3 -19 49 -10 71 10 26 27 -2
23 -39z"/>
<path d="M3055 11321 c-94 -32 -126 -50 -186 -108 -108 -103 -164 -236 -194
-463 -9 -69 -20 -156 -25 -195 -6 -38 -17 -122 -25 -185 -9 -63 -20 -146 -26
-185 -5 -38 -14 -106 -19 -150 -5 -44 -16 -132 -25 -195 -8 -63 -17 -135 -20
-160 -3 -25 -12 -94 -20 -155 -14 -103 -34 -258 -55 -420 -5 -38 -16 -126 -25
-195 -9 -69 -20 -154 -25 -190 -5 -36 -16 -123 -25 -195 -9 -71 -22 -177 -30
-235 -8 -58 -19 -143 -25 -190 -30 -240 -41 -331 -50 -395 -6 -38 -15 -106
-20 -150 -5 -44 -16 -132 -25 -195 -8 -63 -17 -135 -20 -160 -3 -25 -13 -97
-21 -160 -8 -63 -19 -149 -24 -190 -6 -41 -17 -128 -26 -193 -9 -66 -12 -122
-8 -126 5 -3 133 -4 284 0 313 7 369 16 520 90 66 33 102 59 160 118 120 121
172 249 200 491 5 41 16 129 25 195 9 66 20 156 25 200 8 80 19 164 46 367 8
59 14 125 14 147 0 30 5 43 19 51 13 6 167 10 431 10 489 0 635 12 900 77 479
116 857 378 1082 753 75 125 150 294 179 405 66 249 80 348 80 580 0 200 -4
241 -47 413 -15 63 -64 186 -100 252 -108 197 -304 376 -525 479 -86 40 -216
87 -279 101 -19 5 -66 15 -105 24 -38 9 -146 25 -240 36 -156 18 -235 20 -935
19 -692 -1 -770 -3 -815 -18z m1446 -927 c107 -19 178 -47 246 -99 49 -37 132
-147 133 -176 0 -8 4 -19 9 -25 5 -5 17 -55 26 -110 16 -95 16 -110 0 -215
-30 -209 -85 -334 -199 -452 -49 -51 -158 -124 -216 -145 -124 -46 -127 -46
-550 -47 l-405 0 1 25 c1 23 10 93 34 265 5 39 16 124 25 190 9 66 22 167 30
225 8 58 19 146 25 195 6 50 16 119 21 155 6 36 14 98 19 139 5 43 14 77 22
82 7 5 164 9 349 9 264 0 356 -3 430 -16z"/>
<path d="M24965 11321 c-92 -22 -170 -60 -223 -106 -44 -39 -108 -120 -129
-165 -58 -123 -80 -214 -108 -435 -8 -66 -22 -167 -30 -225 -8 -58 -19 -141
-25 -185 -59 -463 -72 -559 -81 -569 -5 -6 -41 7 -86 30 -81 40 -127 59 -178
74 -16 5 -55 16 -85 25 -124 35 -219 47 -422 52 -220 6 -342 -7 -493 -49 -38
-11 -85 -23 -104 -28 -58 -14 -253 -117 -321 -169 -173 -132 -298 -287 -404
-504 -86 -175 -124 -281 -177 -491 -32 -125 -33 -131 -67 -336 -104 -632 -47
-1130 163 -1425 181 -255 479 -375 929 -375 138 0 353 18 421 35 11 2 52 12
90 20 174 40 374 126 519 222 43 29 85 53 92 53 7 0 42 -49 78 -108 35 -59 73
-114 83 -122 15 -13 66 -14 333 -10 l315 5 7 45 c4 25 14 99 22 165 33 256 47
363 56 430 9 71 26 201 55 425 8 69 20 157 25 195 5 39 16 126 25 195 9 69 20
154 25 190 5 36 12 88 15 115 3 28 10 82 15 120 5 39 16 123 25 188 8 64 22
170 30 235 9 64 20 151 25 192 9 71 23 180 55 425 8 61 19 146 25 190 5 44 17
134 25 200 9 66 23 172 31 235 8 63 19 147 24 185 5 39 17 126 25 195 30 234
46 355 55 425 5 39 16 126 25 195 9 69 20 152 25 184 5 32 7 63 4 67 -3 5
-148 9 -322 8 -265 0 -328 -3 -387 -18z m-990 -2346 c108 -23 252 -80 289
-116 6 -5 5 -43 -3 -96 -6 -48 -18 -140 -27 -203 -8 -63 -19 -146 -24 -185 -5
-38 -16 -124 -25 -190 -15 -120 -37 -288 -55 -420 -5 -38 -16 -128 -26 -200
-9 -71 -20 -140 -24 -151 -9 -24 -130 -78 -257 -115 -108 -32 -366 -34 -458
-5 -114 37 -205 111 -244 199 -51 112 -56 142 -55 352 1 258 40 512 108 705
71 199 193 335 361 401 97 38 316 50 440 24z"/>
<path d="M7440 9815 c-8 -2 -55 -8 -105 -15 -384 -48 -684 -178 -912 -394
-101 -95 -163 -173 -235 -291 -160 -264 -236 -508 -308 -980 -5 -38 -15 -157
-22 -263 -30 -495 55 -823 275 -1068 125 -139 326 -249 552 -304 192 -46 326
-60 563 -60 459 0 803 82 1076 257 295 189 480 446 615 853 40 120 82 296 102
433 72 481 67 824 -15 1094 -79 260 -247 462 -483 580 -232 117 -480 163 -858
162 -126 -1 -237 -3 -245 -4z m310 -831 c126 -37 192 -111 235 -264 16 -54 19
-99 18 -260 0 -184 -6 -250 -44 -485 -58 -358 -170 -577 -341 -663 -79 -40
-138 -52 -259 -52 -179 0 -275 40 -342 144 -76 116 -98 285 -73 556 42 454
114 714 243 875 53 65 137 122 213 144 25 7 50 15 55 16 36 11 248 3 295 -11z"/>
<path d="M10790 9815 c-8 -2 -58 -9 -110 -15 -249 -31 -439 -84 -625 -176
-420 -207 -640 -586 -640 -1104 0 -186 25 -284 102 -402 148 -227 470 -344
1118 -408 193 -19 264 -39 307 -86 31 -36 43 -99 28 -157 -28 -111 -90 -156
-268 -193 -92 -19 -432 -19 -587 1 -253 33 -544 104 -750 184 -44 17 -85 31
-92 31 -6 0 -14 -26 -17 -62 -4 -35 -11 -94 -16 -133 -5 -38 -17 -128 -25
-200 -9 -71 -22 -175 -30 -230 -25 -182 -27 -211 -9 -226 35 -29 253 -97 424
-132 374 -78 914 -91 1280 -31 363 59 635 181 830 373 89 87 179 212 219 306
12 28 26 59 31 70 9 22 33 99 49 160 20 75 41 252 41 348 0 412 -210 631 -710
741 -129 28 -372 66 -425 66 -54 0 -249 27 -300 42 -58 17 -101 53 -120 101
-35 87 20 209 117 258 100 51 274 70 534 57 198 -9 370 -35 559 -83 115 -30
131 -35 215 -66 47 -17 96 -31 109 -32 29 -2 33 11 51 163 6 52 17 147 25 210
8 63 20 156 25 205 6 50 15 114 20 144 19 103 15 117 -32 136 -252 102 -568
146 -1036 144 -152 -1 -284 -3 -292 -4z"/>
<path d="M13620 9800 c-242 -39 -409 -108 -579 -236 -271 -203 -443 -495 -575
-974 -68 -248 -116 -629 -116 -926 0 -314 39 -522 135 -720 134 -277 377 -438
735 -490 253 -36 588 -8 845 70 376 114 900 455 1241 808 126 129 244 273 253
308 5 19 17 98 26 175 9 77 20 165 25 195 5 30 14 93 20 140 5 47 17 137 25
200 8 63 17 135 20 160 10 77 35 272 45 345 5 39 16 126 25 195 9 69 20 154
26 190 5 36 14 101 19 145 5 44 16 136 25 204 9 69 13 131 11 138 -4 10 -69
13 -320 13 l-314 0 -103 -124 c-57 -69 -110 -125 -116 -125 -7 -1 -52 28 -100
63 -252 187 -542 267 -954 265 -132 -1 -227 -7 -299 -19z m740 -830 c115 -30
119 -31 189 -65 89 -44 93 -49 82 -121 -5 -32 -17 -115 -26 -184 -9 -69 -21
-156 -26 -195 -6 -38 -14 -104 -19 -145 -5 -41 -16 -129 -25 -195 -9 -66 -20
-154 -25 -195 -5 -41 -13 -109 -19 -150 -6 -41 -16 -113 -22 -160 -19 -155
-17 -149 -57 -174 -44 -28 -130 -60 -232 -89 -103 -29 -356 -31 -444 -4 -148
46 -228 125 -283 282 -25 71 -25 463 0 610 29 165 61 305 78 337 5 10 9 23 9
30 0 28 93 196 135 245 50 57 157 131 220 153 130 44 337 53 465 20z"/>
<path d="M17935 9810 c-27 -5 -81 -13 -120 -19 -353 -54 -681 -221 -958 -490
-111 -107 -317 -366 -404 -506 -7 -11 -44 -71 -83 -133 -38 -62 -70 -115 -70
-118 0 -2 -12 -23 -27 -46 -68 -109 -121 -227 -128 -285 -3 -32 -12 -105 -20
-163 -14 -103 -37 -282 -55 -430 -5 -41 -16 -124 -24 -185 -8 -60 -22 -166
-31 -235 -8 -69 -20 -156 -25 -195 -5 -38 -16 -128 -25 -200 -9 -71 -21 -157
-26 -191 -5 -33 -9 -66 -9 -72 0 -9 135 -12 539 -12 l539 0 6 48 c4 26 11 76
16 112 5 36 16 121 25 190 23 183 34 265 46 355 6 44 13 98 15 120 3 22 12 92
20 155 8 63 19 149 24 190 34 264 42 327 55 430 21 152 31 229 50 385 31 257
35 274 66 296 53 38 168 83 284 112 179 46 227 51 445 51 118 0 236 -3 262 -8
54 -8 50 -17 67 119 6 44 17 130 26 190 8 61 22 164 30 230 8 66 20 153 27
193 6 43 7 76 2 81 -5 4 -44 15 -87 24 -83 18 -355 22 -452 7z"/>
<path d="M19635 9801 c-118 -22 -182 -38 -250 -64 -27 -10 -59 -21 -70 -25
-33 -9 -163 -80 -228 -124 -73 -49 -227 -200 -283 -278 -185 -256 -308 -586
-383 -1030 -39 -229 -44 -300 -45 -600 -1 -316 1 -340 49 -526 70 -271 222
-474 440 -586 182 -93 354 -127 635 -127 226 -1 420 24 590 74 30 9 69 20 85
24 93 26 269 114 391 196 37 25 70 43 73 40 3 -4 38 -59 76 -123 l70 -117 326
-3 326 -2 16 112 c14 102 29 216 57 438 5 41 16 125 24 185 13 99 27 207 56
435 18 143 41 316 56 430 8 63 19 149 24 190 16 121 39 306 56 430 8 63 19
149 24 190 28 221 41 322 51 387 5 39 14 107 19 150 5 43 14 116 20 162 9 68
8 86 -2 92 -19 12 -605 11 -627 -1 -10 -5 -62 -61 -115 -125 -53 -63 -104
-115 -112 -115 -9 0 -37 18 -62 40 -25 23 -77 60 -116 84 -159 96 -272 136
-531 187 -33 7 -168 13 -300 15 -196 2 -258 -1 -340 -15z m724 -826 c79 -16
208 -64 259 -95 28 -17 32 -25 32 -63 0 -25 -5 -69 -10 -98 -6 -30 -15 -92
-20 -139 -5 -47 -14 -119 -20 -160 -5 -41 -15 -113 -21 -160 -6 -47 -17 -130
-24 -185 -8 -55 -21 -156 -30 -225 -29 -231 -35 -275 -48 -360 l-12 -85 -43
-23 c-54 -30 -125 -57 -222 -85 -62 -17 -103 -21 -235 -21 -141 -1 -168 2
-227 22 -158 55 -240 152 -279 332 -35 161 -4 552 63 795 10 39 23 84 27 100
28 105 124 262 203 329 56 48 168 102 249 120 87 19 271 20 358 1z"/>
<path d="M27190 9815 c-8 -2 -55 -8 -105 -15 -412 -52 -726 -196 -960 -441
-80 -84 -185 -230 -245 -344 -89 -170 -185 -472 -221 -700 -44 -280 -51 -366
-52 -605 -1 -251 3 -286 49 -479 41 -169 156 -368 277 -477 240 -216 577 -314
1077 -314 525 0 895 109 1199 355 262 211 451 556 547 1000 59 275 75 433 76
756 0 283 -3 327 -39 464 -96 371 -309 595 -683 719 -184 60 -387 86 -675 85
-126 -1 -237 -3 -245 -4z m360 -849 c127 -64 181 -160 202 -359 12 -110 0
-380 -21 -509 -45 -261 -54 -305 -86 -403 -40 -121 -93 -221 -153 -286 -101
-110 -201 -149 -383 -149 -276 0 -388 108 -418 405 -8 75 -7 144 4 280 45 558
149 855 343 979 101 64 151 76 317 73 131 -3 144 -5 195 -31z"/>
<path d="M16352 9732 c-11 -8 -24 -83 -52 -327 -5 -44 -14 -111 -19 -150 -6
-38 -17 -126 -26 -195 -9 -69 -20 -154 -25 -190 -18 -127 -22 -190 -13 -190 5
0 42 44 82 98 158 214 237 308 391 466 118 120 273 256 350 307 22 14 23 19
13 40 -6 13 -24 51 -39 84 l-29 60 -310 2 c-170 2 -316 -1 -323 -5z"/>
<path d="M15396 7121 c-199 -221 -431 -417 -701 -593 -94 -61 -133 -84 -302
-174 -81 -43 -93 -56 -93 -103 -1 -62 -35 -193 -71 -266 -61 -128 -188 -232
-344 -283 -123 -41 -182 -47 -435 -47 -361 1 -646 46 -984 156 -66 22 -125 39
-132 39 -15 0 -20 -22 -34 -135 -5 -49 -15 -121 -20 -160 -5 -38 -16 -124 -25
-190 -8 -66 -21 -169 -29 -228 -8 -60 -13 -114 -10 -122 3 -7 22 -17 42 -23
20 -6 64 -18 97 -27 304 -85 684 -130 1110 -130 532 0 856 69 1195 256 124 68
287 207 379 322 41 53 161 239 161 252 0 2 18 43 40 90 22 47 40 94 40 104 0
9 4 21 9 26 4 6 14 30 20 55 61 234 70 282 116 650 9 69 20 154 26 190 5 36
14 103 20 150 25 219 30 256 35 277 4 13 2 23 -3 23 -5 0 -53 -49 -107 -109z"/>
<path d="M25782 6003 c-11 -27 -41 -91 -65 -143 -25 -52 -55 -117 -67 -145
-12 -27 -44 -97 -71 -153 -27 -57 -49 -105 -49 -107 0 -2 -22 -50 -49 -107
-27 -56 -59 -125 -71 -153 -12 -27 -38 -84 -57 -125 -19 -41 -43 -93 -53 -115
-10 -22 -34 -74 -54 -116 -20 -42 -36 -79 -36 -83 0 -12 208 -7 217 7 4 6 35
75 68 152 l61 140 217 3 217 2 9 -22 c5 -13 17 -68 26 -123 10 -55 21 -113 25
-130 l6 -30 107 -3 c119 -3 116 -5 98 67 -5 20 -17 74 -26 121 -9 47 -21 103
-26 125 -9 41 -108 530 -116 575 -2 14 -10 54 -18 90 -7 36 -21 103 -30 150
-9 47 -21 104 -27 128 l-11 42 -102 0 -103 0 -20 -47z m107 -296 c5 -28 17
-90 25 -137 8 -47 22 -123 30 -170 9 -47 17 -105 18 -130 l3 -45 -163 -3
c-139 -2 -163 0 -168 13 -4 8 -2 21 4 28 5 6 22 41 37 77 27 64 45 106 91 207
13 28 24 54 24 57 0 2 13 33 29 68 15 35 31 71 35 81 10 29 24 11 35 -46z"/>
<path d="M2159 6026 c-5 -6 -9 -25 -9 -44 0 -19 -4 -62 -10 -96 -9 -59 -22
-152 -56 -416 -8 -69 -20 -149 -25 -179 -5 -30 -9 -114 -9 -187 0 -157 13
-196 89 -267 81 -76 176 -106 338 -107 185 0 309 41 414 138 94 86 124 164
154 397 9 66 22 170 30 230 9 61 20 144 25 185 5 41 17 132 26 201 10 69 15
132 12 140 -4 11 -25 14 -91 12 -47 0 -90 -4 -95 -7 -6 -3 -13 -34 -17 -68 -3
-35 -12 -108 -20 -163 -7 -55 -21 -156 -29 -225 -62 -485 -67 -507 -132 -579
-49 -55 -110 -81 -208 -88 -117 -8 -188 9 -241 58 -55 51 -71 114 -56 226 6
43 17 132 26 198 50 394 64 500 76 574 5 35 8 65 6 67 -9 9 -189 8 -198 0z"/>
<path d="M9151 6025 c-4 -5 -13 -53 -20 -105 -29 -230 -45 -336 -52 -343 -4
-5 -22 -2 -40 7 -49 22 -151 46 -195 46 -49 0 -156 -25 -194 -45 -147 -76
-225 -258 -225 -525 0 -127 2 -138 27 -190 49 -97 135 -140 279 -140 113 0
223 28 272 69 17 14 21 13 45 -17 23 -28 33 -32 73 -32 26 0 51 6 56 13 6 6
13 44 17 82 3 39 11 102 16 140 10 75 32 240 56 425 8 63 19 147 24 185 5 39
17 129 26 200 8 72 19 151 23 178 5 28 4 50 -1 53 -17 11 -179 9 -187 -1z
m-196 -569 c54 -14 96 -33 106 -48 3 -5 0 -46 -7 -91 -24 -157 -44 -312 -44
-339 0 -37 -39 -62 -128 -82 -151 -34 -241 15 -257 140 -9 66 10 210 37 282
45 122 157 175 293 138z"/>
<path d="M11125 6025 c-5 -19 -25 -150 -36 -240 -6 -49 -14 -116 -18 -147 -4
-32 -10 -61 -14 -64 -4 -4 -24 0 -44 9 -55 24 -151 47 -198 47 -51 0 -143 -24
-196 -50 -137 -70 -219 -260 -220 -510 -1 -146 16 -205 76 -266 54 -53 118
-74 232 -74 99 0 165 15 242 54 29 14 54 26 57 26 2 0 11 -14 19 -30 15 -30
18 -31 73 -28 l56 3 7 40 c8 46 26 186 39 295 5 41 16 127 25 190 8 63 17 135
20 160 3 25 12 92 20 150 8 58 19 143 25 190 5 47 15 120 21 163 6 43 8 81 6
84 -10 9 -190 8 -192 -2z m-190 -571 c33 -8 71 -22 84 -31 20 -13 23 -20 17
-57 -13 -89 -37 -275 -45 -345 -8 -84 -15 -92 -100 -117 -119 -36 -215 -18
-265 49 -19 26 -21 42 -20 150 0 150 21 228 77 293 59 68 142 87 252 58z"/>
<path d="M15820 6024 c-10 -11 -19 -68 -45 -274 -8 -69 -20 -156 -25 -195 -5
-38 -17 -126 -25 -195 -15 -114 -28 -214 -55 -420 -6 -41 -11 -100 -13 -130
l-2 -55 95 0 94 0 8 42 c4 23 11 82 17 130 19 162 31 258 36 281 5 22 8 22
156 22 95 0 178 6 227 15 245 50 382 212 382 451 0 167 -80 273 -240 318 -68
19 -596 28 -610 10z m553 -193 c57 -35 80 -88 75 -175 -7 -137 -81 -225 -208
-245 -36 -6 -115 -11 -177 -11 -99 0 -113 2 -122 19 -6 10 -9 20 -6 22 3 4 9
53 35 279 18 154 1 142 198 138 155 -3 170 -5 205 -27z"/>
<path d="M17205 6032 c-13 -2 -27 -19 -39 -50 -11 -26 -34 -78 -52 -117 -47
-105 -64 -146 -64 -161 0 -10 16 -14 64 -14 35 0 72 3 81 6 20 8 230 322 222
331 -6 6 -177 10 -212 5z"/>
<path d="M17710 6020 c-4 -8 -10 -40 -14 -70 -3 -30 -13 -107 -21 -170 -35
-268 -44 -337 -50 -380 -3 -25 -12 -97 -20 -160 -9 -63 -20 -153 -26 -200 -5
-47 -14 -110 -19 -140 -5 -30 -10 -75 -12 -100 l-3 -45 59 0 c48 0 61 4 70 20
18 33 28 35 75 8 66 -37 140 -53 240 -53 213 0 332 103 397 342 12 45 18 104
18 208 1 139 0 147 -26 201 -19 37 -42 66 -70 86 -46 32 -143 63 -197 63 -46
0 -175 -28 -208 -45 -47 -25 -56 -20 -49 24 3 22 11 81 16 133 6 51 17 135 23
186 7 51 9 96 4 99 -4 2 -47 6 -94 6 -67 2 -87 -1 -93 -13z m392 -566 c101
-34 126 -117 94 -311 -36 -226 -159 -302 -372 -232 -52 16 -64 37 -53 87 5 23
14 82 19 130 15 129 30 244 35 269 5 22 51 44 130 62 61 14 97 13 147 -5z"/>
<path d="M18675 6030 c-4 -7 -22 -126 -40 -265 -8 -66 -22 -167 -30 -225 -7
-58 -19 -148 -25 -200 -7 -52 -18 -138 -26 -191 -23 -164 -28 -272 -15 -312
17 -52 63 -82 144 -97 83 -15 89 -11 106 74 11 61 9 76 -13 76 -7 0 -21 9 -31
20 -16 18 -17 27 -6 112 7 51 19 145 27 208 8 63 19 147 24 185 10 73 34 263
45 350 4 28 13 95 20 150 7 55 9 104 5 108 -8 9 -180 15 -185 7z"/>
<path d="M22135 6028 c-7 -5 -16 -35 -19 -70 -4 -35 -11 -92 -16 -128 -5 -36
-15 -104 -21 -151 -14 -115 -16 -117 -76 -91 -86 37 -164 48 -244 34 -39 -7
-92 -21 -118 -33 -82 -35 -166 -137 -200 -244 -42 -131 -53 -334 -25 -433 21
-75 96 -151 167 -169 106 -28 271 -11 369 38 50 25 67 24 78 -6 9 -23 15 -25
68 -25 l59 0 16 113 c14 101 29 215 57 437 5 41 17 127 25 190 8 63 22 165 29
225 8 61 20 148 27 195 17 126 19 122 -79 124 -46 0 -89 -2 -97 -6z m-197
-572 c29 -8 65 -22 79 -31 23 -16 25 -21 19 -68 -46 -376 -51 -409 -78 -428
-12 -9 -49 -23 -83 -30 -228 -51 -315 59 -259 328 28 135 70 194 161 228 49
18 96 18 161 1z"/>
<path d="M23713 6025 c-8 -6 -17 -43 -23 -95 -5 -47 -13 -116 -19 -155 -10
-74 -21 -153 -46 -350 -8 -66 -22 -169 -30 -230 -8 -60 -17 -130 -20 -155 -3
-25 -12 -97 -20 -160 -8 -63 -15 -118 -15 -122 0 -4 185 -8 410 -8 351 0 411
2 416 15 3 8 7 45 7 82 l2 68 -301 3 c-248 2 -303 5 -307 16 -3 8 -2 43 4 78
5 34 13 104 19 153 6 50 15 107 21 128 l10 37 275 0 274 0 10 24 c5 13 12 52
16 85 l7 61 -277 0 c-218 0 -278 3 -282 13 -2 7 0 53 6 103 7 49 15 119 19
156 4 37 11 72 17 78 6 6 129 11 314 12 l304 3 14 79 c7 43 11 80 9 83 -10 9
-801 7 -814 -2z"/>
<path d="M24700 6020 c-4 -8 -11 -40 -14 -70 -8 -63 -30 -233 -52 -400 -8 -63
-19 -149 -24 -190 -6 -41 -15 -109 -20 -150 -6 -41 -15 -118 -20 -170 -6 -52
-12 -104 -15 -114 -2 -11 1 -41 6 -67 15 -70 55 -102 148 -118 90 -16 97 -11
106 79 l7 65 -31 13 c-36 16 -38 31 -21 159 6 43 18 130 26 193 8 63 19 147
24 185 5 39 17 126 25 195 9 69 23 171 31 227 16 112 18 173 7 174 -5 0 -46 1
-91 2 -66 2 -86 -1 -92 -13z"/>
<path d="M26570 6025 c-4 -5 -13 -53 -19 -105 -7 -52 -16 -126 -21 -165 -17
-132 -41 -310 -51 -380 -5 -38 -14 -106 -19 -150 -5 -44 -16 -135 -25 -203
-27 -212 5 -263 177 -287 56 -8 62 0 73 91 6 60 6 62 -19 68 -43 11 -48 35
-32 138 8 51 19 131 25 178 22 179 69 536 81 620 17 116 23 200 14 201 -71 5
-178 2 -184 -6z"/>
<path d="M8158 5979 c-110 -29 -132 -152 -39 -218 98 -70 237 38 191 149 -22
54 -91 86 -152 69z"/>
<path d="M4329 5963 c-29 -18 -59 -71 -59 -104 0 -59 66 -119 132 -119 74 0
128 54 128 130 0 34 -6 48 -34 76 -30 30 -40 34 -87 34 -32 0 -65 -7 -80 -17z"/>
<path d="M19081 5946 c-37 -38 -50 -96 -29 -136 21 -39 75 -70 124 -70 36 0
50 6 84 38 33 32 40 46 40 76 0 82 -46 126 -130 126 -51 0 -59 -3 -89 -34z"/>
<path d="M27122 5835 c-46 -13 -85 -25 -87 -27 -2 -2 -9 -44 -15 -93 -6 -50
-17 -96 -23 -102 -7 -7 -43 -20 -80 -29 -73 -18 -81 -26 -92 -91 l-7 -43 69 0
c37 0 74 -4 81 -9 14 -8 13 -26 -13 -216 -40 -287 -40 -291 -21 -350 13 -41
27 -62 59 -88 56 -44 105 -57 220 -57 112 0 115 2 119 97 l3 58 -30 -2 c-62
-3 -134 17 -155 44 -22 29 -27 98 -11 180 5 26 17 111 27 188 10 77 22 143 28
147 6 4 64 8 129 8 85 0 119 3 121 13 3 6 7 40 10 74 l6 62 -123 3 -122 3 1
50 c1 28 5 85 9 128 9 89 17 85 -103 52z"/>
<path d="M3625 5611 c-39 -9 -91 -27 -116 -39 -57 -28 -72 -28 -84 1 -8 17
-21 23 -57 27 -26 3 -54 2 -62 -2 -8 -5 -17 -33 -20 -70 -4 -35 -13 -112 -22
-173 -8 -60 -21 -159 -28 -220 -8 -60 -20 -148 -26 -195 -7 -47 -13 -107 -13
-135 l-2 -50 89 -3 c49 -2 93 1 97 5 7 7 22 105 49 333 10 85 29 239 36 288 4
28 12 37 48 53 72 31 177 45 225 29 65 -21 76 -40 74 -129 -1 -42 -9 -128 -18
-191 -29 -213 -35 -255 -41 -322 l-7 -68 96 0 c82 0 96 2 101 18 5 18 16 100
36 262 6 52 18 138 26 191 21 141 19 256 -5 295 -29 47 -80 81 -146 99 -75 19
-141 18 -230 -4z"/>
<path d="M5856 5614 c-134 -30 -221 -97 -279 -217 -51 -107 -62 -163 -62 -322
1 -155 9 -184 66 -250 61 -69 141 -95 294 -95 116 0 246 20 294 45 26 13 29
21 36 79 8 81 4 90 -39 72 -51 -21 -197 -39 -274 -34 -93 7 -141 31 -169 88
-25 49 -30 104 -10 117 6 4 89 11 182 14 192 7 241 19 318 77 66 50 97 118 97
209 0 57 -4 76 -26 109 -14 22 -41 50 -59 63 -74 51 -249 72 -369 45z m194
-167 c95 -33 76 -164 -28 -195 -55 -16 -285 -19 -290 -3 -2 6 2 33 10 59 16
57 91 138 134 145 58 8 140 6 174 -6z"/>
<path d="M6845 5612 c-39 -10 -91 -28 -116 -40 -57 -28 -63 -28 -77 3 -10 22
-18 25 -66 25 -30 0 -57 -4 -60 -9 -5 -8 -30 -185 -46 -334 -5 -43 -13 -111
-19 -150 -26 -177 -41 -298 -41 -326 l0 -31 94 0 c75 0 95 3 100 15 3 9 10 57
16 108 6 51 14 119 19 152 5 33 17 123 26 200 9 77 19 150 21 163 9 44 118 74
274 76 l65 1 13 69 c9 45 10 72 4 78 -19 19 -134 19 -207 0z"/>
<path d="M7406 5614 c-159 -35 -242 -113 -267 -250 -19 -104 10 -173 90 -213
20 -11 86 -27 146 -36 61 -10 119 -19 131 -21 11 -2 33 -13 48 -25 25 -20 28
-27 23 -66 -3 -26 -14 -54 -26 -67 -46 -49 -215 -64 -356 -31 -109 25 -108 26
-117 -20 -10 -55 -10 -113 0 -119 28 -17 172 -36 272 -36 177 1 271 30 349
108 57 58 81 119 81 212 0 80 -23 123 -85 157 -42 23 -172 53 -228 53 -121 0
-176 83 -104 155 59 59 159 70 324 34 76 -16 97 -18 104 -8 14 24 22 130 10
142 -37 37 -284 56 -395 31z"/>
<path d="M9728 5614 c-84 -20 -129 -46 -184 -107 -93 -101 -138 -259 -133
-464 4 -122 6 -131 35 -183 53 -95 130 -130 280 -130 95 0 186 22 250 59 19
12 37 21 39 21 3 0 12 -14 20 -30 15 -30 18 -31 73 -28 67 4 62 -8 87 203 9
77 23 185 30 240 7 55 19 141 25 190 6 50 15 115 20 145 4 30 5 58 2 62 -4 4
-29 8 -56 9 -43 3 -52 -1 -70 -24 -27 -33 -32 -33 -87 -3 -52 28 -170 56 -231
55 -24 0 -69 -7 -100 -15z m207 -154 c22 -6 57 -18 78 -27 42 -18 43 -26 27
-127 -22 -137 -40 -283 -40 -318 0 -49 -32 -72 -132 -92 -133 -27 -225 9 -249
97 -15 54 -5 217 18 288 21 68 55 123 90 146 59 39 136 51 208 33z"/>
<path d="M19715 5613 c-100 -21 -167 -56 -219 -114 -87 -97 -124 -205 -133
-391 -5 -105 -3 -136 11 -180 32 -96 98 -157 201 -184 70 -19 245 -18 327 2
75 18 77 21 94 138 7 48 6 49 -17 42 -13 -5 -66 -15 -117 -24 -246 -42 -342
64 -287 321 22 104 51 154 114 196 l54 36 111 -1 c71 -1 126 -7 153 -16 54
-19 60 -13 69 73 5 49 3 67 -7 76 -19 16 -170 43 -233 42 -28 0 -82 -7 -121
-16z"/>
<path d="M20450 5614 c-82 -22 -119 -42 -170 -93 -95 -95 -144 -251 -144 -461
1 -115 3 -129 28 -182 50 -106 129 -148 277 -148 99 0 174 17 250 55 55 27 56
27 73 -7 10 -20 19 -23 71 -23 l60 0 7 50 c7 56 34 260 48 375 5 41 16 125 24
185 8 61 18 138 21 171 l7 62 -54 4 c-40 2 -57 -1 -70 -14 -10 -10 -18 -22
-18 -28 0 -16 -25 -12 -78 15 -103 52 -229 67 -332 39z m234 -163 c94 -26 102
-35 88 -108 -7 -32 -16 -96 -21 -143 -33 -286 -26 -268 -120 -296 -111 -33
-205 -20 -258 38 -68 73 -37 355 50 454 63 71 142 88 261 55z"/>
<path d="M22745 5625 c-5 -1 -37 -9 -70 -16 -74 -16 -164 -67 -205 -117 -79
-96 -123 -242 -124 -417 -1 -117 0 -123 32 -187 37 -75 89 -117 176 -143 101
-30 390 -11 453 30 13 9 24 29 27 47 3 18 8 50 11 70 7 44 -5 54 -42 35 -42
-21 -189 -40 -268 -35 -126 7 -195 63 -195 158 0 45 2 48 31 54 17 3 85 6 150
6 187 0 296 34 363 112 105 122 82 293 -48 360 -66 34 -238 60 -291 43z m178
-205 c25 -28 29 -38 24 -74 -7 -47 -41 -81 -97 -96 -19 -5 -89 -10 -155 -11
l-120 -3 -3 27 c-4 36 44 132 79 158 45 32 77 39 163 35 75 -3 81 -5 109 -36z"/>
<path d="M27821 5615 c-191 -43 -279 -143 -327 -375 -21 -99 -18 -288 5 -342
52 -122 143 -168 331 -168 198 0 318 62 386 201 42 84 51 116 69 235 19 126
19 170 -1 249 -25 101 -82 158 -194 195 -57 19 -198 21 -269 5z m171 -157 c21
-6 52 -27 68 -45 29 -32 30 -37 30 -133 0 -156 -37 -298 -91 -346 -27 -25
-107 -54 -147 -54 -47 0 -102 20 -135 50 l-32 28 1 134 c2 214 47 326 147 362
52 18 108 20 159 4z"/>
<path d="M5374 5602 l-90 -3 -47 -99 c-26 -54 -68 -143 -93 -197 -118 -251
-145 -304 -153 -299 -5 3 -11 18 -13 33 -3 16 -20 98 -38 183 -32 155 -39 188
-63 310 l-13 65 -107 3 c-59 1 -107 -1 -107 -5 1 -11 13 -61 38 -153 53 -194
75 -278 83 -310 4 -19 15 -60 23 -90 8 -30 28 -109 45 -175 17 -65 35 -123 40
-128 4 -4 43 -7 87 -5 l78 3 32 60 c44 85 130 247 174 330 20 39 70 133 110
210 40 77 86 163 101 192 45 80 46 79 -87 75z"/>
<path d="M16823 5602 l-91 -3 -7 -52 c-3 -29 -10 -83 -15 -122 -66 -503 -65
-492 -52 -541 28 -105 95 -147 242 -153 103 -3 173 9 258 46 67 29 80 29 94
-2 10 -22 17 -25 69 -25 67 0 60 -13 78 140 18 148 66 516 81 622 6 37 10 72
10 77 0 7 -36 11 -100 11 -115 0 -101 17 -120 -145 -6 -55 -17 -143 -25 -195
-7 -52 -19 -144 -26 -203 -12 -98 -16 -110 -38 -126 -24 -16 -83 -32 -167 -45
-45 -7 -104 9 -132 37 -28 29 -30 60 -12 197 6 47 18 137 26 200 8 63 20 150
26 193 6 45 7 81 2 85 -5 4 -50 6 -101 4z"/>
<path d="M19044 5593 c-6 -7 -15 -43 -18 -80 -4 -37 -13 -113 -21 -168 -52
-380 -58 -446 -46 -492 17 -63 64 -98 151 -113 45 -8 75 -9 81 -3 5 5 14 38
20 74 9 56 8 65 -7 74 -58 35 -57 30 -40 155 9 63 21 151 27 195 5 44 17 125
24 180 8 55 16 118 17 140 l3 40 -89 5 c-62 3 -93 1 -102 -7z"/>
<path d="M4267 5593 c-4 -3 -7 -25 -7 -48 0 -23 -4 -66 -9 -96 -6 -30 -17
-112 -26 -184 -9 -71 -23 -179 -31 -239 -20 -140 -14 -185 34 -235 31 -32 47
-40 103 -51 91 -16 105 -8 114 69 8 67 4 78 -31 91 -35 14 -33 48 16 395 6 39
15 107 20 153 5 45 12 98 16 117 l6 35 -99 0 c-55 0 -103 -3 -106 -7z"/>
<path d="M8056 5588 c-3 -7 -7 -38 -10 -68 -4 -30 -13 -104 -21 -165 -8 -60
-19 -148 -25 -195 -5 -47 -14 -112 -20 -145 -22 -132 -4 -212 57 -246 36 -22
137 -42 163 -34 22 7 28 26 32 100 3 45 1 50 -24 63 -16 7 -28 21 -29 30 -2
42 3 111 11 162 6 30 14 93 19 140 15 133 40 316 47 344 l6 26 -101 0 c-73 0
-103 -4 -105 -12z"/>
<path d="M16764 2582 c-5 -4 -43 -59 -83 -122 -39 -63 -102 -161 -138 -218
-36 -57 -63 -106 -60 -109 5 -4 165 -8 203 -4 6 1 59 54 119 119 59 64 152
163 207 219 54 57 98 107 98 113 0 12 -329 14 -346 2z"/>
<path d="M9985 2530 c-61 -4 -71 -8 -82 -30 -20 -38 -93 -201 -93 -206 0 -3
-18 -43 -40 -90 -22 -47 -40 -87 -40 -90 0 -3 -18 -43 -40 -90 -22 -47 -40
-87 -40 -89 0 -3 -12 -30 -26 -62 -15 -32 -35 -77 -45 -100 -34 -77 -56 -127
-83 -185 -14 -31 -26 -59 -26 -62 0 -2 -15 -37 -34 -78 -18 -40 -46 -102 -61
-138 -15 -36 -43 -98 -61 -138 -19 -41 -34 -75 -34 -77 0 -2 -18 -43 -40 -90
-22 -47 -40 -88 -40 -90 0 -2 -18 -43 -40 -90 -22 -47 -40 -88 -40 -90 0 -2
-18 -43 -40 -90 -22 -47 -40 -88 -40 -90 0 -2 -13 -32 -29 -67 -16 -35 -64
-142 -106 -238 -42 -96 -83 -188 -91 -204 -8 -16 -14 -33 -14 -38 0 -4 39 -8
88 -8 l87 0 19 48 c11 26 34 79 52 117 17 39 48 109 68 158 20 48 45 106 55
130 70 153 81 179 81 182 0 2 16 38 36 81 19 42 51 115 70 162 20 47 39 92 44
101 10 19 38 83 75 171 15 36 43 98 61 138 19 41 34 75 34 77 0 2 16 38 36 81
19 42 51 116 71 163 35 85 42 101 102 234 17 38 31 70 31 72 0 2 14 34 31 72
16 37 34 77 39 88 4 11 18 41 29 68 12 26 29 66 40 90 10 23 27 62 39 87 11
25 32 74 47 110 15 36 31 69 36 75 25 26 5 32 -86 25z"/>
<path d="M21079 2524 c-5 -7 -8 -78 -7 -160 l3 -149 125 0 125 0 3 157 3 157
-122 3 c-81 2 -124 -1 -130 -8z"/>
<path d="M2960 2513 c0 -45 -41 -178 -70 -227 -73 -128 -194 -185 -430 -204
l-85 -7 0 -100 0 -100 263 -3 262 -2 0 -904 c0 -583 3 -906 10 -908 5 -1 66
-2 135 0 l125 3 0 1235 0 1234 -105 0 c-93 0 -105 -2 -105 -17z"/>
<path d="M4795 2511 c-100 -28 -156 -62 -235 -141 -189 -189 -270 -521 -270
-1110 0 -434 46 -722 145 -921 85 -169 225 -289 368 -314 20 -4 37 -11 37 -16
0 -16 234 -11 266 6 16 8 37 15 47 15 31 0 140 56 195 99 122 97 203 264 252
516 39 201 52 778 25 1070 -19 207 -27 247 -77 400 -69 211 -227 359 -427 401
-91 19 -251 17 -326 -5z m246 -235 c68 -21 99 -39 146 -87 56 -56 86 -108 116
-204 47 -149 52 -218 52 -690 0 -445 -5 -522 -41 -690 -51 -233 -172 -357
-350 -357 -162 -1 -279 83 -336 242 -51 139 -53 172 -53 730 0 570 4 620 61
797 70 217 223 314 405 259z"/>
<path d="M6785 2515 c-296 -75 -450 -336 -505 -855 -16 -146 -16 -643 -1 -786
26 -239 67 -410 128 -529 14 -27 33 -63 41 -80 9 -16 47 -62 86 -100 74 -73
164 -126 239 -139 20 -4 37 -11 37 -16 0 -6 54 -10 130 -10 72 0 130 4 130 9
0 5 19 12 43 16 125 21 290 154 355 286 110 226 143 450 145 989 1 376 -12
530 -60 715 -73 284 -218 447 -446 499 -81 19 -250 19 -322 1z m223 -237 c100
-25 184 -97 236 -204 33 -67 50 -128 70 -257 23 -138 23 -884 1 -1052 -44
-334 -125 -467 -310 -510 -58 -14 -72 -14 -141 1 -160 33 -240 124 -290 334
-25 105 -32 337 -24 790 8 441 11 475 57 625 69 224 211 321 401 273z"/>
<path d="M12640 1296 l0 -1235 126 -3 c69 -2 128 -1 130 1 2 2 4 232 4 510 0
278 3 516 6 527 6 21 10 22 292 27 240 4 302 9 377 26 113 25 129 30 190 63
194 101 304 329 305 627 0 324 -138 554 -383 638 -137 47 -211 53 -644 53
l-403 0 0 -1234z m795 980 c92 -16 136 -30 185 -62 124 -78 177 -211 167 -416
-9 -181 -53 -280 -154 -348 -105 -70 -232 -91 -519 -88 l-209 3 -3 430 c-1
237 0 445 3 463 l6 32 222 0 c141 0 251 -5 302 -14z"/>
<path d="M8604 2462 c-121 -36 -194 -97 -248 -209 -49 -98 -66 -195 -66 -369
0 -197 27 -329 86 -424 26 -42 91 -103 135 -125 92 -48 257 -66 364 -40 153
37 234 130 276 319 25 109 26 394 3 499 -37 167 -128 290 -249 337 -82 31
-216 37 -301 12z m194 -178 c114 -47 162 -172 162 -421 0 -181 -26 -277 -92
-339 -48 -46 -69 -54 -137 -54 -110 0 -180 65 -212 195 -20 85 -18 360 4 438
29 103 59 143 137 184 34 17 93 16 138 -3z"/>
<path d="M19878 2395 c-1 0 -5 -112 -8 -250 l-5 -250 -123 -3 -123 -3 3 -102
3 -102 120 -5 120 -5 5 -720 c5 -662 7 -724 23 -767 10 -26 30 -59 45 -73 49
-50 78 -55 294 -55 l199 0 -3 103 -3 102 -115 5 c-125 5 -165 20 -175 63 -3
12 -4 319 -3 682 l3 660 148 3 147 3 0 104 0 105 -144 0 c-87 0 -147 4 -151
10 -4 6 -6 116 -5 244 0 155 -3 237 -10 241 -8 5 -132 10 -242 10z"/>
<path d="M16575 1944 c-171 -26 -253 -59 -327 -131 -82 -81 -135 -230 -126
-358 l3 -50 104 -3 c77 -2 107 1 113 10 4 7 8 40 8 74 0 165 90 244 274 244
131 0 214 -36 261 -111 33 -51 50 -198 36 -289 -14 -88 -34 -105 -204 -175
-375 -153 -435 -180 -472 -205 -81 -56 -132 -129 -170 -240 -24 -71 -25 -305
-2 -390 46 -170 141 -269 280 -295 20 -4 37 -11 37 -16 0 -15 205 -11 237 5
15 8 51 24 78 37 59 27 157 117 192 177 14 23 31 42 38 42 7 0 17 -24 24 -58
16 -80 48 -133 96 -157 56 -28 192 -33 241 -10 l35 16 -3 86 -3 86 -51 2
c-109 4 -104 -31 -104 712 0 519 -3 638 -15 683 -42 160 -143 255 -313 296
-62 14 -219 25 -267 18z m333 -1139 c3 -294 -8 -361 -82 -458 -104 -138 -323
-170 -431 -62 -57 57 -78 131 -73 256 5 109 32 190 82 246 29 34 104 74 311
168 95 42 146 69 152 78 3 4 12 7 21 5 15 -3 17 -28 20 -233z"/>
<path d="M18470 1944 c-164 -31 -232 -64 -326 -158 -81 -81 -128 -168 -167
-313 -43 -156 -52 -250 -52 -528 0 -199 5 -284 18 -361 46 -271 144 -434 311
-513 44 -22 100 -42 124 -46 23 -4 42 -11 42 -16 0 -16 234 -11 266 6 16 8 36
15 46 15 34 0 125 57 183 115 104 104 165 262 182 468 l6 77 -122 0 -121 0 0
-29 c0 -46 -29 -202 -48 -256 -25 -73 -102 -149 -171 -169 -186 -54 -337 33
-405 234 -35 104 -46 220 -46 478 0 317 24 484 87 607 85 165 266 221 428 133
69 -38 117 -124 135 -243 20 -140 4 -125 135 -125 128 0 120 -6 115 80 -7 154
-69 299 -169 399 -69 69 -128 103 -221 128 -58 15 -189 25 -230 17z"/>
<path d="M22575 1943 c-209 -33 -345 -131 -429 -308 -51 -106 -74 -185 -97
-335 -19 -115 -19 -573 0 -695 50 -337 204 -538 444 -581 20 -3 37 -10 37 -15
0 -16 234 -11 266 6 16 8 36 15 45 15 25 0 113 50 165 94 107 90 181 269 199
484 l8 82 -121 0 -120 0 -6 -57 c-22 -187 -48 -264 -111 -330 -38 -39 -63 -55
-104 -67 -186 -55 -337 33 -405 234 -35 106 -46 220 -46 485 0 381 32 540 133
668 89 114 260 140 388 61 67 -41 111 -123 128 -239 22 -141 5 -125 136 -125
l115 0 0 58 c0 68 -20 166 -50 244 -41 109 -154 234 -249 274 -89 38 -244 61
-326 47z"/>
<path d="M24460 1945 c-8 -2 -49 -9 -90 -15 -235 -38 -403 -212 -475 -492 -67
-262 -56 -721 25 -985 69 -226 219 -385 399 -424 28 -6 53 -15 57 -20 7 -13
281 -12 286 1 2 6 21 13 43 17 77 11 192 76 253 143 137 149 205 391 219 780
7 219 -20 451 -66 565 -5 11 -17 40 -27 65 -73 179 -221 308 -399 346 -64 14
-200 25 -225 19z m157 -229 c163 -43 244 -183 278 -476 27 -232 14 -560 -29
-717 -53 -196 -177 -303 -351 -303 -175 0 -294 103 -352 305 -57 201 -56 693
3 895 8 30 18 64 21 75 3 11 22 47 42 80 77 127 231 183 388 141z"/>
<path d="M26315 1944 c-11 -2 -47 -9 -80 -16 -168 -31 -300 -146 -361 -312
-20 -57 -24 -85 -24 -188 0 -138 15 -203 66 -284 62 -99 166 -162 424 -258
211 -78 228 -85 287 -123 108 -67 149 -196 108 -337 -40 -137 -153 -205 -340
-206 -201 0 -300 83 -326 275 -6 44 -14 84 -18 88 -4 4 -57 6 -117 5 l-109 -3
0 -75 c2 -249 146 -437 371 -482 30 -6 54 -15 54 -19 0 -5 65 -9 145 -9 84 0
145 4 145 9 0 6 21 13 46 17 146 22 305 137 372 269 77 155 81 367 9 495 -65
115 -156 174 -462 300 -212 87 -254 107 -301 146 -107 87 -124 291 -33 405 76
96 304 119 420 42 52 -34 86 -103 96 -193 l8 -75 123 -3 122 -3 0 50 c0 27 -7
80 -16 117 -46 200 -153 303 -366 353 -53 13 -212 23 -243 15z"/>
<path d="M15348 1894 c-97 -33 -176 -102 -244 -210 -26 -41 -49 -72 -52 -69
-3 3 -6 65 -6 138 l-1 132 -122 3 -123 3 0 -915 c0 -589 3 -916 10 -918 5 -1
63 -2 129 0 l120 3 4 627 c3 537 5 633 19 672 62 179 154 268 314 306 38 8 97
14 134 12 l65 -3 0 120 0 120 -85 2 c-69 2 -99 -2 -162 -23z"/>
<path d="M21077 1883 c-11 -10 -8 -1808 2 -1819 6 -5 63 -8 130 -6 l121 3 0
915 0 914 -123 0 c-68 0 -127 -3 -130 -7z"/>
<path d="M10038 1235 c-151 -41 -254 -167 -293 -356 -14 -69 -16 -117 -12
-245 3 -87 10 -177 17 -199 6 -22 16 -56 22 -75 42 -141 145 -254 264 -288 63
-18 202 -15 266 6 110 37 172 87 227 186 91 162 108 494 36 711 -32 97 -108
194 -179 231 -87 44 -245 58 -348 29z m211 -185 c44 -22 86 -68 105 -115 33
-78 51 -273 37 -397 -18 -162 -54 -239 -131 -278 -48 -25 -129 -26 -173 -4
-109 55 -143 150 -141 399 1 178 15 249 62 325 52 84 155 114 241 70z"/>
</g>
</svg>
